<svg width="3285" height="3808" viewBox="0 0 3285 3808" fill="none" xmlns="http://www.w3.org/2000/svg">
<path d="M1550.2 2001.9C1484.37 1962.41 1463.01 1877.03 1502.51 1811.2C1542 1745.37 1627.38 1724.01 1693.21 1763.51L3165.59 2646.79C3231.42 2686.28 3252.77 2771.66 3213.28 2837.49C3173.79 2903.32 3088.41 2924.67 3022.58 2885.18L1550.2 2001.9Z" fill="url(#paint0_linear_5_97)"/>
<path d="M1531 205C1531 128.232 1593.23 66 1670 66C1746.77 66 1809 128.232 1809 205V1886C1809 1962.77 1746.77 2025 1670 2025C1593.23 2025 1531 1962.77 1531 1886V205Z" fill="url(#paint1_linear_5_97)"/>
<path d="M1648.28 2024.46C1582.7 2064.37 1497.18 2043.57 1457.27 1977.99C1417.36 1912.42 1438.16 1826.9 1503.73 1786.99L2970.41 894.27C3035.99 854.356 3121.5 875.159 3161.42 940.735C3201.33 1006.31 3180.53 1091.83 3114.95 1131.74L1648.28 2024.46Z" fill="#D9D9D9"/>
<path d="M449.275 2752.46C383.699 2792.37 298.184 2771.57 258.27 2705.99C218.356 2640.42 239.159 2554.9 304.735 2514.99L1441.48 1823.09C1507.06 1783.18 1592.57 1803.98 1632.48 1869.55C1672.4 1935.13 1651.6 2020.65 1586.02 2060.56L449.275 2752.46Z" fill="url(#paint2_linear_5_97)"/>
<path d="M47 1017C47 940.232 109.232 878 186 878C262.768 878 325 940.232 325 1017V2734C325 2810.77 262.768 2873 186 2873C109.232 2873 47 2810.77 47 2734V1017Z" fill="url(#paint3_linear_5_97)"/>
<path d="M1531 1890C1531 1813.23 1593.23 1751 1670 1751C1746.77 1751 1809 1813.23 1809 1890V3607C1809 3683.77 1746.77 3746 1670 3746C1593.23 3746 1531 3683.77 1531 3607V1890Z" fill="#D9D9D9"/>
<path d="M2956 1047C2956 970.232 3018.23 908 3095 908C3171.77 908 3234 970.232 3234 1047V2764C3234 2840.77 3171.77 2903 3095 2903C3018.23 2903 2956 2840.77 2956 2764V1047Z" fill="url(#paint4_linear_5_97)"/>
<path d="M119.197 1141.9C53.3662 1102.41 32.0144 1017.03 71.5062 951.197C110.998 885.366 196.379 864.014 262.209 903.506L1734.59 1786.79C1800.42 1826.28 1821.77 1911.66 1782.28 1977.49C1742.79 2043.32 1657.41 2064.67 1591.58 2025.18L119.197 1141.9Z" fill="#D9D9D9"/>
<path d="M119.197 2852.9C53.3662 2813.41 32.0144 2728.03 71.5062 2662.2C110.998 2596.37 196.379 2575.01 262.209 2614.51L1734.59 3497.79C1800.42 3537.28 1821.77 3622.66 1782.28 3688.49C1742.79 3754.32 1657.41 3775.67 1591.58 3736.18L119.197 2852.9Z" fill="url(#paint5_linear_5_97)"/>
<path d="M1599.2 309.9C1533.37 270.408 1512.01 185.027 1551.51 119.197C1591 53.3663 1676.38 32.0145 1742.21 71.5062L3160.44 922.304C3226.27 961.796 3247.62 1047.18 3208.13 1113.01C3168.64 1178.84 3083.26 1200.19 3017.43 1160.7L1599.2 309.9Z" fill="url(#paint6_linear_5_97)"/>
<path d="M1550.2 2001.9C1484.37 1962.41 1463.01 1877.03 1502.51 1811.2C1542 1745.37 1627.38 1724.01 1693.21 1763.51L3165.59 2646.79C3231.42 2686.28 3252.77 2771.66 3213.28 2837.49C3173.79 2903.32 3088.41 2924.67 3022.58 2885.18L1550.2 2001.9Z" fill="url(#paint7_linear_5_97)"/>
<path d="M1531 205C1531 128.232 1593.23 66 1670 66C1746.77 66 1809 128.232 1809 205V1886C1809 1962.77 1746.77 2025 1670 2025C1593.23 2025 1531 1962.77 1531 1886V205Z" fill="url(#paint8_linear_5_97)"/>
<path d="M1648.28 2024.46C1582.7 2064.37 1497.18 2043.57 1457.27 1977.99C1417.36 1912.42 1438.16 1826.9 1503.73 1786.99L2970.41 894.27C3035.99 854.356 3121.5 875.159 3161.42 940.735C3201.33 1006.31 3180.53 1091.83 3114.95 1131.74L1648.28 2024.46Z" fill="#D9D9D9"/>
<path d="M449.275 2752.46C383.699 2792.37 298.184 2771.57 258.27 2705.99C218.356 2640.42 239.159 2554.9 304.735 2514.99L1441.48 1823.09C1507.06 1783.18 1592.57 1803.98 1632.48 1869.55C1672.4 1935.13 1651.6 2020.65 1586.02 2060.56L449.275 2752.46Z" fill="url(#paint9_linear_5_97)"/>
<path d="M47 1017C47 940.232 109.232 878 186 878C262.768 878 325 940.232 325 1017V2734C325 2810.77 262.768 2873 186 2873C109.232 2873 47 2810.77 47 2734V1017Z" fill="url(#paint10_linear_5_97)"/>
<path d="M1531 1890C1531 1813.23 1593.23 1751 1670 1751C1746.77 1751 1809 1813.23 1809 1890V3607C1809 3683.77 1746.77 3746 1670 3746C1593.23 3746 1531 3683.77 1531 3607V1890Z" fill="#D9D9D9"/>
<path d="M2956 1047C2956 970.232 3018.23 908 3095 908C3171.77 908 3234 970.232 3234 1047V2764C3234 2840.77 3171.77 2903 3095 2903C3018.23 2903 2956 2840.77 2956 2764V1047Z" fill="url(#paint11_linear_5_97)"/>
<path d="M119.197 1141.9C53.3662 1102.41 32.0144 1017.03 71.5062 951.197C110.998 885.366 196.379 864.014 262.209 903.506L1734.59 1786.79C1800.42 1826.28 1821.77 1911.66 1782.28 1977.49C1742.79 2043.32 1657.41 2064.67 1591.58 2025.18L119.197 1141.9Z" fill="#D9D9D9"/>
<path d="M119.197 1141.9C53.3662 1102.41 32.0144 1017.03 71.5062 951.197C110.998 885.366 196.379 864.014 262.209 903.506L1734.59 1786.79C1800.42 1826.28 1821.77 1911.66 1782.28 1977.49C1742.79 2043.32 1657.41 2064.67 1591.58 2025.18L119.197 1141.9Z" fill="#D9D9D9"/>
<path d="M119.197 2852.9C53.3662 2813.41 32.0144 2728.03 71.5062 2662.2C110.998 2596.37 196.379 2575.01 262.209 2614.51L1734.59 3497.79C1800.42 3537.28 1821.77 3622.66 1782.28 3688.49C1742.79 3754.32 1657.41 3775.67 1591.58 3736.18L119.197 2852.9Z" fill="url(#paint12_linear_5_97)"/>
<path d="M1599.2 309.9C1533.37 270.408 1512.01 185.027 1551.51 119.197C1591 53.3663 1676.38 32.0145 1742.21 71.5062L3160.44 922.304C3226.27 961.796 3247.62 1047.18 3208.13 1113.01C3168.64 1178.84 3083.26 1200.19 3017.43 1160.7L1599.2 309.9Z" fill="url(#paint13_linear_5_97)"/>
<path d="M1374.65 1906.25L1154.87 1757.3C1093.51 1715.72 1076.58 1632.74 1116.74 1570.43C1155.7 1510 1234.87 1490.17 1297.72 1525.11L1329 1542.5L1421 1587.24C1444.56 1598.69 1469.55 1606.93 1495.31 1611.72L1572.53 1626.08C1590.14 1629.35 1608.01 1631 1625.92 1631H1655.91C1702.94 1631 1749.28 1619.64 1790.97 1597.88L1946 1517L1973.62 1500.43C2035 1463.6 2114.19 1478.14 2158.48 1534.37L2166.04 1543.97C2202.12 1589.78 2202.25 1654.32 2166.35 1700.27C2157.19 1712 2146.03 1722.02 2133.39 1729.87L2031.47 1793.2C2009.26 1807.01 1989 1823.73 1971.24 1842.93L1903.31 1916.35C1864.31 1958.51 1838.6 2011.24 1829.41 2067.95L1814.5 2160L1797.37 2293.54C1790.06 2350.51 1745.58 2395.58 1688.71 2403.63C1620.37 2413.3 1556.73 2366.87 1545.08 2298.84L1520.55 2155.54C1517.52 2137.89 1512.8 2120.57 1506.43 2103.83L1483.77 2044.22C1462.44 1988.11 1424.34 1939.93 1374.65 1906.25Z" fill="#D9D9D9"/>
<defs>
<linearGradient id="paint0_linear_5_97" x1="2884.5" y1="2628.5" x2="872" y2="1455" gradientUnits="userSpaceOnUse">
<stop stop-color="#C7C7C7"/>
<stop offset="1" stop-color="#737373"/>
</linearGradient>
<linearGradient id="paint1_linear_5_97" x1="1670" y1="474.002" x2="1652.64" y2="2871.94" gradientUnits="userSpaceOnUse">
<stop stop-color="#C7C7C7"/>
<stop offset="1" stop-color="#737373"/>
</linearGradient>
<linearGradient id="paint2_linear_5_97" x1="610" y1="2480.5" x2="2029.18" y2="1606.47" gradientUnits="userSpaceOnUse">
<stop stop-color="#C7C7C7"/>
<stop offset="1" stop-color="#737373"/>
</linearGradient>
<linearGradient id="paint3_linear_5_97" x1="186" y1="878" x2="186" y2="2873" gradientUnits="userSpaceOnUse">
<stop stop-color="#D9D9D9"/>
<stop offset="1" stop-color="#C7C7C7"/>
</linearGradient>
<linearGradient id="paint4_linear_5_97" x1="3095" y1="1344" x2="3095" y2="2473" gradientUnits="userSpaceOnUse">
<stop stop-color="#D9D9D9"/>
<stop offset="1" stop-color="#C7C7C7"/>
</linearGradient>
<linearGradient id="paint5_linear_5_97" x1="1739.5" y1="3667" x2="209.5" y2="2750" gradientUnits="userSpaceOnUse">
<stop stop-color="#D9D9D9"/>
<stop offset="1" stop-color="#C7C7C7"/>
</linearGradient>
<linearGradient id="paint6_linear_5_97" x1="2809" y1="861.5" x2="1908" y2="321" gradientUnits="userSpaceOnUse">
<stop stop-color="#D9D9D9"/>
<stop offset="1" stop-color="#C7C7C7"/>
</linearGradient>
<linearGradient id="paint7_linear_5_97" x1="2884.5" y1="2628.5" x2="872" y2="1455" gradientUnits="userSpaceOnUse">
<stop stop-color="#C7C7C7"/>
<stop offset="1" stop-color="#101010"/>
</linearGradient>
<linearGradient id="paint8_linear_5_97" x1="1670" y1="474.002" x2="1652.64" y2="2871.94" gradientUnits="userSpaceOnUse">
<stop stop-color="#C7C7C7"/>
<stop offset="1" stop-color="#101010"/>
</linearGradient>
<linearGradient id="paint9_linear_5_97" x1="610" y1="2480.5" x2="2029.18" y2="1606.47" gradientUnits="userSpaceOnUse">
<stop stop-color="#C7C7C7"/>
<stop offset="1" stop-color="#101010"/>
</linearGradient>
<linearGradient id="paint10_linear_5_97" x1="186" y1="1277" x2="186" y2="2873" gradientUnits="userSpaceOnUse">
<stop stop-color="#D9D9D9"/>
<stop offset="1" stop-color="#C7C7C7"/>
</linearGradient>
<linearGradient id="paint11_linear_5_97" x1="3095" y1="1344" x2="3095" y2="2473" gradientUnits="userSpaceOnUse">
<stop stop-color="#D9D9D9"/>
<stop offset="1" stop-color="#C7C7C7"/>
</linearGradient>
<linearGradient id="paint12_linear_5_97" x1="1739.5" y1="3667" x2="209.5" y2="2750" gradientUnits="userSpaceOnUse">
<stop stop-color="#D9D9D9"/>
<stop offset="1" stop-color="#C7C7C7"/>
</linearGradient>
<linearGradient id="paint13_linear_5_97" x1="2809" y1="861.5" x2="1908" y2="321" gradientUnits="userSpaceOnUse">
<stop stop-color="#D9D9D9"/>
<stop offset="1" stop-color="#C7C7C7"/>
</linearGradient>
</defs>
</svg>
